<?xml version="1.0" standalone="yes"?>

<svg version="1.1" viewBox="0.0 0.0 166.28608923884514 157.70603674540683" fill="none" stroke="none" stroke-linecap="square" stroke-miterlimit="10" xmlns="http://www.w3.org/2000/svg" xmlns:xlink="http://www.w3.org/1999/xlink"><clipPath id="p.0"><path d="m0 0l166.28609 0l0 157.70604l-166.28609 0l0 -157.70604z" clip-rule="nonzero"></path></clipPath><g clip-path="url(#p.0)"><path fill="#000000" fill-opacity="0.0" d="m0 0l166.28609 0l0 157.70604l-166.28609 0z" fill-rule="nonzero"></path><path fill="#f1c232" d="m1.2256913 27.26251l0 0c0 -14.266916 11.56562 -25.832537 25.832539 -25.832537l112.334915 0c6.8512115 0 13.421829 2.7216349 18.266373 7.566175c4.844528 4.8445406 7.566162 11.415149 7.566162 18.266361l0 103.32706c0 14.266907 -11.565613 25.832535 -25.832535 25.832535l-112.334915 0c-14.266917 0 -25.832539 -11.565628 -25.832539 -25.832535z" fill-rule="nonzero"></path><path stroke="#000000" stroke-width="1.0" stroke-linejoin="round" stroke-linecap="butt" d="m1.2256913 27.26251l0 0c0 -14.266916 11.56562 -25.832537 25.832539 -25.832537l112.334915 0c6.8512115 0 13.421829 2.7216349 18.266373 7.566175c4.844528 4.8445406 7.566162 11.415149 7.566162 18.266361l0 103.32706c0 14.266907 -11.565613 25.832535 -25.832535 25.832535l-112.334915 0c-14.266917 0 -25.832539 -11.565628 -25.832539 -25.832535z" fill-rule="nonzero"></path><path fill="#e06666" d="m23.480314 40.625042l0 0c0 -10.181957 8.254108 -18.436066 18.436068 -18.436066l80.16724 0c4.8895493 0 9.578842 1.9423656 13.03627 5.3997993c3.457428 3.4574318 5.3997955 8.146717 5.3997955 13.036266l0 73.74205c0 10.181961 -8.254105 18.436073 -18.436066 18.436073l-80.16724 0c-10.181959 0 -18.436068 -8.254112 -18.436068 -18.436073z" fill-rule="nonzero"></path><path stroke="#000000" stroke-width="1.0" stroke-linejoin="round" stroke-linecap="butt" d="m23.480314 40.625042l0 0c0 -10.181957 8.254108 -18.436066 18.436068 -18.436066l80.16724 0c4.8895493 0 9.578842 1.9423656 13.03627 5.3997993c3.457428 3.4574318 5.3997955 8.146717 5.3997955 13.036266l0 73.74205c0 10.181961 -8.254105 18.436073 -18.436066 18.436073l-80.16724 0c-10.181959 0 -18.436068 -8.254112 -18.436068 -18.436073z" fill-rule="nonzero"></path><path fill="#ff0000" d="m30.503937 77.49606l0 0c0 -28.44049 23.055573 -51.496063 51.496063 -51.496063l0 0c13.6576 0 26.755829 5.4254627 36.413216 15.082848c9.657387 9.657383 15.082848 22.755608 15.082848 36.413216l0 0c0 28.44049 -23.055573 51.496063 -51.496063 51.496063l0 0c-28.44049 0 -51.496063 -23.055573 -51.496063 -51.496063zm79.83406 15.258919c6.7384644 -12.51429 4.470497 -27.966942 -5.5797424 -38.017178c-10.050232 -10.050236 -25.502884 -12.318203 -38.017174 -5.5797386zm-56.675995 -30.517841l0 0c-6.7384644 12.514294 -4.470497 27.966946 5.5797386 38.017178c10.050236 10.05024 25.502888 12.318207 38.017178 5.5797424z" fill-rule="nonzero"></path><path stroke="#000000" stroke-width="1.0" stroke-linejoin="round" stroke-linecap="butt" d="m30.503937 77.49606l0 0c0 -28.44049 23.055573 -51.496063 51.496063 -51.496063l0 0c13.6576 0 26.755829 5.4254627 36.413216 15.082848c9.657387 9.657383 15.082848 22.755608 15.082848 36.413216l0 0c0 28.44049 -23.055573 51.496063 -51.496063 51.496063l0 0c-28.44049 0 -51.496063 -23.055573 -51.496063 -51.496063zm79.83406 15.258919c6.7384644 -12.51429 4.470497 -27.966942 -5.5797424 -38.017178c-10.050232 -10.050236 -25.502884 -12.318203 -38.017174 -5.5797386zm-56.675995 -30.517841l0 0c-6.7384644 12.514294 -4.470497 27.966946 5.5797386 38.017178c10.050236 10.05024 25.502888 12.318207 38.017178 5.5797424z" fill-rule="nonzero"></path></g></svg>

