<?xml version="1.0" standalone="yes"?>

<svg version="1.1" viewBox="0.0 0.0 169.48293963254594 160.9002624671916" fill="none" stroke="none" stroke-linecap="square" stroke-miterlimit="10" xmlns="http://www.w3.org/2000/svg" xmlns:xlink="http://www.w3.org/1999/xlink"><clipPath id="p.0"><path d="m0 0l169.48294 0l0 160.90027l-169.48294 0l0 -160.90027z" clip-rule="nonzero"></path></clipPath><g clip-path="url(#p.0)"><path fill="#000000" fill-opacity="0.0" d="m0 0l169.48294 0l0 160.90027l-169.48294 0z" fill-rule="nonzero"></path><path fill="#f1c232" d="m2.869368 28.980865l0 0c0 -14.266916 11.56562 -25.832537 25.832539 -25.832537l112.33493 0c6.8512115 0 13.421814 2.7216346 18.266357 7.5661755c4.8445435 4.8445406 7.5661774 11.415147 7.5661774 18.266361l0 103.32706c0 14.266907 -11.565628 25.832535 -25.832535 25.832535l-112.33493 0c-14.266917 0 -25.832539 -11.565628 -25.832539 -25.832535z" fill-rule="nonzero"></path><path stroke="#000000" stroke-width="1.0" stroke-linejoin="round" stroke-linecap="butt" d="m2.869368 28.980865l0 0c0 -14.266916 11.56562 -25.832537 25.832539 -25.832537l112.33493 0c6.8512115 0 13.421814 2.7216346 18.266357 7.5661755c4.8445435 4.8445406 7.5661774 11.415147 7.5661774 18.266361l0 103.32706c0 14.266907 -11.565628 25.832535 -25.832535 25.832535l-112.33493 0c-14.266917 0 -25.832539 -11.565628 -25.832539 -25.832535z" fill-rule="nonzero"></path><path fill="#e06666" d="m27.598946 43.77337l0 0c0 -10.181957 8.254105 -18.436064 18.436062 -18.436064l80.16724 0c4.8895493 0 9.578835 1.9423656 13.0362625 5.3997974c3.4574432 3.4574318 5.399811 8.146717 5.399811 13.036266l0 73.74204c0 10.181961 -8.25412 18.436066 -18.436073 18.436066l-80.16724 0c-10.181957 0 -18.436062 -8.254105 -18.436062 -18.436066z" fill-rule="nonzero"></path><path stroke="#000000" stroke-width="1.0" stroke-linejoin="round" stroke-linecap="butt" d="m27.598946 43.77337l0 0c0 -10.181957 8.254105 -18.436064 18.436062 -18.436064l80.16724 0c4.8895493 0 9.578835 1.9423656 13.0362625 5.3997974c3.4574432 3.4574318 5.399811 8.146717 5.399811 13.036266l0 73.74204c0 10.181961 -8.25412 18.436066 -18.436073 18.436066l-80.16724 0c-10.181957 0 -18.436062 -8.254105 -18.436062 -18.436066z" fill-rule="nonzero"></path><path fill="#cfe2f3" d="m39.003757 55.732635l23.451233 -23.451233l24.911755 24.911755l24.91175 -24.911755l23.45124 23.451233l-24.911758 24.911758l24.911758 24.91175l-23.45124 23.45124l-24.91175 -24.911758l-24.911755 24.911758l-23.451233 -23.45124l24.91175 -24.91175z" fill-rule="nonzero"></path><path stroke="#000000" stroke-width="1.0" stroke-linejoin="round" stroke-linecap="butt" d="m39.003757 55.732635l23.451233 -23.451233l24.911755 24.911755l24.91175 -24.911755l23.45124 23.451233l-24.911758 24.911758l24.911758 24.91175l-23.45124 23.45124l-24.91175 -24.911758l-24.911755 24.911758l-23.451233 -23.45124l24.91175 -24.91175z" fill-rule="nonzero"></path></g></svg>

