<?xml version="1.0" standalone="yes"?>

<svg version="1.1" viewBox="0.0 0.0 172.76640419947506 173.9291338582677" fill="none" stroke="none" stroke-linecap="square" stroke-miterlimit="10" xmlns="http://www.w3.org/2000/svg" xmlns:xlink="http://www.w3.org/1999/xlink"><clipPath id="p.0"><path d="m0 0l172.7664 0l0 173.92914l-172.7664 0l0 -173.92914z" clip-rule="nonzero"></path></clipPath><g clip-path="url(#p.0)"><path fill="#000000" fill-opacity="0.0" d="m0 0l172.7664 0l0 173.92914l-172.7664 0z" fill-rule="nonzero"></path><path fill="#38761d" d="m14.18764 13.835409l145.42865 0l0 146.657l-145.42865 0z" fill-rule="nonzero"></path><path fill="#5f914a" d="m4.901961 4.5497293l164.0 0l-9.285675 9.28568l-145.42865 0z" fill-rule="nonzero"></path><path fill="#2c5e17" d="m4.901961 169.77808l9.285679 -9.285675l145.42865 0l9.285675 9.285675z" fill-rule="nonzero"></path><path fill="#87ac77" d="m4.901961 4.5497293l9.285679 9.28568l0 146.657l-9.285679 9.285675z" fill-rule="nonzero"></path><path fill="#214611" d="m168.90196 4.5497293l0 165.22835l-9.285675 -9.285675l0 -146.657z" fill-rule="nonzero"></path><path fill="#000000" fill-opacity="0.0" d="m4.901961 4.5497293l164.0 0l0 165.22835l-164.0 0zm9.285679 9.28568l145.42865 0l0 146.657l-145.42865 0zm-9.285679 -9.28568l9.285679 9.28568m-9.285679 155.94267l9.285679 -9.285675m154.71432 -155.94267l-9.285675 9.28568m9.285675 155.94267l-9.285675 -9.285675" fill-rule="nonzero"></path><path stroke="#000000" stroke-width="1.0" stroke-linejoin="round" stroke-linecap="butt" d="m4.901961 4.5497293l164.0 0l0 165.22835l-164.0 0zm9.285679 9.28568l145.42865 0l0 146.657l-145.42865 0zm-9.285679 -9.28568l9.285679 9.28568m-9.285679 155.94267l9.285679 -9.285675m154.71432 -155.94267l-9.285675 9.28568m9.285675 155.94267l-9.285675 -9.285675" fill-rule="nonzero"></path><path fill="#ffffff" d="m28.12024 97.1117c-1.8379459 1.2453003 -3.6937408 2.7309341 -5.5673866 4.4568863c-1.8671265 1.7215347 -3.7618809 3.6900253 -5.6842594 5.9054565c-0.9707689 -0.16958618 -1.8667574 0.0238266 -2.6879673 0.58023834c-1.9552612 1.3247986 -2.14464 3.1505737 -0.5681362 5.477333c0.49017334 0.7234497 1.3077402 1.7195663 2.4527016 2.9883575c1.1405449 1.2622757 1.955904 2.2551346 2.4460773 2.9785767c1.8282146 2.698265 4.4611225 7.005226 7.8987217 12.920883c-0.013805389 0.77963257 0.20450592 1.5018463 0.65493584 2.1666412c0.34444618 0.5083618 0.7765598 0.9145355 1.296341 1.2185211c1.0680542 1.7868652 2.0761738 3.4431763 3.0243587 4.968918c0.9481869 1.5257416 1.8462124 2.9142914 2.6940784 4.1656647c4.2525864 6.2763824 7.9069366 9.648773 10.963051 10.117157c2.806961 0.43748474 7.2410965 -1.3971863 13.302406 -5.5040436c6.1199646 -4.1466064 9.973068 -7.028305 11.559303 -8.645111c1.4367523 -1.4584808 1.5987244 -3.0089111 0.48589325 -4.6513367c-1.3777847 -2.0334778 -3.1029663 -2.3480682 -5.175537 -0.9437866c-0.37150574 0.25170898 -0.89437103 0.7010803 -1.5685997 1.3480988c-0.6786499 0.6405029 -1.213501 1.0932312 -1.6045532 1.3581848c-1.2318115 0.83462524 -3.0422134 2.1135712 -5.4311943 3.8368378c-2.3868828 1.712326 -4.186455 2.979187 -5.398716 3.8005524c-2.6004982 1.7619781 -4.3208466 2.5281982 -5.1610527 2.2986755c-1.142353 -0.3386078 -3.1774254 -2.6684875 -6.105217 -6.989609c-0.7286377 -1.0753937 -1.4896622 -2.2477112 -2.2830734 -3.5169525c-0.7913132 -1.2801819 -1.6181641 -2.6408844 -2.4805565 -4.0821075l12.71534 -10.412636l6.562973 -5.345413c1.6531105 -1.4338913 1.8768883 -3.0404816 0.6713257 -4.819763c-0.62265015 -0.91897583 -1.4127388 -1.4534836 -2.3702583 -1.6035156c-0.95751953 -0.15003204 -1.8664398 0.06639862 -2.7267532 0.64930725c-0.8603134 0.58290863 -3.0448189 2.34832 -6.5535164 5.296219l-12.011444 9.935707c-2.8868523 -4.9765015 -5.251009 -8.823654 -7.092472 -11.541466c-0.5166683 -0.762558 -1.2935486 -1.7196732 -2.330637 -2.8713608c1.7792072 -2.0899048 3.5177517 -3.9240189 5.2156353 -5.5023575c1.6978855 -1.5783386 3.348484 -2.910675 4.9517975 -3.9970016c3.0697594 -2.0799255 6.574787 -3.7700806 10.5150795 -5.07045c0.39863205 -0.12745667 0.7348175 -0.28391266 1.0085526 -0.46938324c0.8407631 -0.569664 1.3194427 -1.3789825 1.436039 -2.4279633c0.09768295 -0.9505768 -0.118434906 -1.8169174 -0.6483536 -2.599022c-0.91410446 -1.3491287 -2.205017 -1.8438492 -3.872738 -1.4841614c-3.603508 0.7869034 -7.780903 2.7899704 -12.532188 6.009224z" fill-rule="evenodd"></path><path stroke="#274e13" stroke-width="1.0" stroke-linejoin="round" stroke-linecap="butt" d="m28.12024 97.1117c-1.8379459 1.2453003 -3.6937408 2.7309341 -5.5673866 4.4568863c-1.8671265 1.7215347 -3.7618809 3.6900253 -5.6842594 5.9054565c-0.9707689 -0.16958618 -1.8667574 0.0238266 -2.6879673 0.58023834c-1.9552612 1.3247986 -2.14464 3.1505737 -0.5681362 5.477333c0.49017334 0.7234497 1.3077402 1.7195663 2.4527016 2.9883575c1.1405449 1.2622757 1.955904 2.2551346 2.4460773 2.9785767c1.8282146 2.698265 4.4611225 7.005226 7.8987217 12.920883c-0.013805389 0.77963257 0.20450592 1.5018463 0.65493584 2.1666412c0.34444618 0.5083618 0.7765598 0.9145355 1.296341 1.2185211c1.0680542 1.7868652 2.0761738 3.4431763 3.0243587 4.968918c0.9481869 1.5257416 1.8462124 2.9142914 2.6940784 4.1656647c4.2525864 6.2763824 7.9069366 9.648773 10.963051 10.117157c2.806961 0.43748474 7.2410965 -1.3971863 13.302406 -5.5040436c6.1199646 -4.1466064 9.973068 -7.028305 11.559303 -8.645111c1.4367523 -1.4584808 1.5987244 -3.0089111 0.48589325 -4.6513367c-1.3777847 -2.0334778 -3.1029663 -2.3480682 -5.175537 -0.9437866c-0.37150574 0.25170898 -0.89437103 0.7010803 -1.5685997 1.3480988c-0.6786499 0.6405029 -1.213501 1.0932312 -1.6045532 1.3581848c-1.2318115 0.83462524 -3.0422134 2.1135712 -5.4311943 3.8368378c-2.3868828 1.712326 -4.186455 2.979187 -5.398716 3.8005524c-2.6004982 1.7619781 -4.3208466 2.5281982 -5.1610527 2.2986755c-1.142353 -0.3386078 -3.1774254 -2.6684875 -6.105217 -6.989609c-0.7286377 -1.0753937 -1.4896622 -2.2477112 -2.2830734 -3.5169525c-0.7913132 -1.2801819 -1.6181641 -2.6408844 -2.4805565 -4.0821075l12.71534 -10.412636l6.562973 -5.345413c1.6531105 -1.4338913 1.8768883 -3.0404816 0.6713257 -4.819763c-0.62265015 -0.91897583 -1.4127388 -1.4534836 -2.3702583 -1.6035156c-0.95751953 -0.15003204 -1.8664398 0.06639862 -2.7267532 0.64930725c-0.8603134 0.58290863 -3.0448189 2.34832 -6.5535164 5.296219l-12.011444 9.935707c-2.8868523 -4.9765015 -5.251009 -8.823654 -7.092472 -11.541466c-0.5166683 -0.762558 -1.2935486 -1.7196732 -2.330637 -2.8713608c1.7792072 -2.0899048 3.5177517 -3.9240189 5.2156353 -5.5023575c1.6978855 -1.5783386 3.348484 -2.910675 4.9517975 -3.9970016c3.0697594 -2.0799255 6.574787 -3.7700806 10.5150795 -5.07045c0.39863205 -0.12745667 0.7348175 -0.28391266 1.0085526 -0.46938324c0.8407631 -0.569664 1.3194427 -1.3789825 1.436039 -2.4279633c0.09768295 -0.9505768 -0.118434906 -1.8169174 -0.6483536 -2.599022c-0.91410446 -1.3491287 -2.205017 -1.8438492 -3.872738 -1.4841614c-3.603508 0.7869034 -7.780903 2.7899704 -12.532188 6.009224z" fill-rule="evenodd"></path><path fill="#ffffff" d="m60.408684 104.06641c-1.476448 1.0003662 -2.3180313 1.6419067 -2.5247498 1.9246063c-0.8302345 1.0189819 -0.76843643 2.2323456 0.18539429 3.6401062c0.50341415 0.74298096 1.0782928 1.2663727 1.7246399 1.5701752c0.6504822 0.30099487 1.217659 0.28756714 1.7015381 -0.040283203c0.27295685 -0.18494415 0.67520905 -0.49077606 1.2067528 -0.9174881c0.53126526 -0.43603516 0.939579 -0.7507248 1.2249451 -0.94407654l8.7296715 -5.8720093c1.1042404 -0.7481766 1.0668335 -1.9923401 -0.112205505 -3.732483c-1.1790466 -1.7401428 -2.3206863 -2.2361298 -3.4249191 -1.4879532l-8.711067 5.8594055zm11.731812 15.030525c-0.91812897 0.6220856 -2.0127945 1.47789 -3.2840042 2.5674286c-0.9742813 0.8598175 -0.9182663 2.0913696 0.16804504 3.6946487c1.179039 1.7401428 2.3392868 2.2235184 3.4807434 1.450119c0.35980988 -0.24378204 0.8854294 -0.6569748 1.5768661 -1.2395706c0.69143677 -0.58260345 1.2232666 -0.9999924 1.5954819 -1.2521896c0.81887054 -0.5548248 2.067047 -1.3577423 3.7445297 -2.4087372c1.6774826 -1.0509949 2.9256592 -1.8539124 3.7445297 -2.4087372c1.1042328 -0.7481766 1.0668335 -1.9923325 -0.112213135 -3.7324753c-1.179039 -1.7401505 -2.3206787 -2.2361298 -3.4249115 -1.4879532c-0.81887054 0.5548248 -2.0670547 1.3577347 -3.7445374 2.4087372c-1.6774826 1.0509949 -2.9256592 1.8539047 -3.7445297 2.4087296z" fill-rule="evenodd"></path><path stroke="#274e13" stroke-width="1.0" stroke-linejoin="round" stroke-linecap="butt" d="m60.408684 104.06641c-1.476448 1.0003662 -2.3180313 1.6419067 -2.5247498 1.9246063c-0.8302345 1.0189819 -0.76843643 2.2323456 0.18539429 3.6401062c0.50341415 0.74298096 1.0782928 1.2663727 1.7246399 1.5701752c0.6504822 0.30099487 1.217659 0.28756714 1.7015381 -0.040283203c0.27295685 -0.18494415 0.67520905 -0.49077606 1.2067528 -0.9174881c0.53126526 -0.43603516 0.939579 -0.7507248 1.2249451 -0.94407654l8.7296715 -5.8720093c1.1042404 -0.7481766 1.0668335 -1.9923401 -0.112205505 -3.732483c-1.1790466 -1.7401428 -2.3206863 -2.2361298 -3.4249191 -1.4879532l-8.711067 5.8594055zm11.731812 15.030525c-0.91812897 0.6220856 -2.0127945 1.47789 -3.2840042 2.5674286c-0.9742813 0.8598175 -0.9182663 2.0913696 0.16804504 3.6946487c1.179039 1.7401428 2.3392868 2.2235184 3.4807434 1.450119c0.35980988 -0.24378204 0.8854294 -0.6569748 1.5768661 -1.2395706c0.69143677 -0.58260345 1.2232666 -0.9999924 1.5954819 -1.2521896c0.81887054 -0.5548248 2.067047 -1.3577423 3.7445297 -2.4087372c1.6774826 -1.0509949 2.9256592 -1.8539124 3.7445297 -2.4087372c1.1042328 -0.7481766 1.0668335 -1.9923325 -0.112213135 -3.7324753c-1.179039 -1.7401505 -2.3206787 -2.2361298 -3.4249115 -1.4879532c-0.81887054 0.5548248 -2.0670547 1.3577347 -3.7445374 2.4087372c-1.6774826 1.0509949 -2.9256592 1.8539047 -3.7445297 2.4087296z" fill-rule="evenodd"></path><path fill="#ffffff" d="m72.244896 85.40765c-1.9943695 1.3512878 -1.4879074 4.246155 1.519371 8.684593c0.71538544 1.0558472 1.8664703 2.5582275 3.4532394 4.5071564c1.5932922 1.9445114 2.741005 3.4349136 3.4431458 4.4712067c0.7948761 1.1731567 1.873024 2.9959793 3.2344513 5.4684677c1.3614197 2.4724808 2.4395752 4.2953033 3.2344513 5.46846c3.4047165 5.0250244 6.2117996 6.7890244 8.421242 5.2920074c0.80165863 -0.5431595 1.3135605 -1.2894058 1.5357132 -2.238739c0.22867584 -0.95373535 0.07142639 -1.8314362 -0.47174072 -2.6330948c-0.3179474 -0.46926117 -0.9291229 -1.1677856 -1.833519 -2.0955582c-0.89788055 -0.9321976 -1.5455399 -1.6915817 -1.9429779 -2.27816c-0.7418823 -1.0949478 -1.7802887 -2.8591156 -3.115219 -5.2924957c-1.3349228 -2.4333801 -2.399826 -4.2366486 -3.1947021 -5.4098053c0.1676712 -1.2262344 0.24895477 -2.1799622 0.24384308 -2.8611908l0.8377228 -6.216301c0.45393372 -2.361641 1.1532822 -4.3189774 2.09803 -5.872017c1.3682022 0.75616455 2.754448 2.1705399 4.1587296 4.2431183c1.6029968 2.36586 4.21006 5.7013397 7.8211823 10.006424c3.6132202 4.2941513 6.2213364 7.624161 7.824341 9.990028c0.58290863 0.8603134 1.3292618 1.3864136 2.2390518 1.5782928c0.9207306 0.19398499 1.8014755 0.0061416626 2.6422424 -0.56352234c0.8407593 -0.5696564 1.3384705 -1.3157959 1.4931335 -2.2384186c0.16560364 -0.92051697 -0.043052673 -1.8109283 -0.6259613 -2.6712494c-1.3645401 -2.013916 -3.2791443 -4.4396744 -5.7438126 -7.277275l-6.185669 -7.234665c-1.3626175 -1.758461 -2.656807 -3.5632858 -3.8825607 -5.4144745c0.12290192 -1.0817795 0.7386856 -2.8255997 1.8473587 -5.231453c1.1401978 -2.5698547 2.0720139 -4.099869 2.7954636 -4.590042c0.7821045 -0.52991486 2.1017075 -0.14022064 3.958809 1.1690826c1.3436279 0.9725189 2.5702515 2.0671082 3.6798859 3.28376l7.1574707 8.416321c3.0015335 3.672058 5.4069138 6.4642487 7.216133 8.376572c1.4263 1.5156097 2.9411163 1.7302475 4.5444336 0.64391327c0.8407593 -0.5696564 1.3689575 -1.3269424 1.5845947 -2.2718582c0.2156372 -0.94490814 0.029159546 -1.7885437 -0.5594177 -2.5309067c-6.1727295 -7.257683 -10.672157 -12.382584 -13.498268 -15.374687c-3.812767 -4.406204 -6.074936 -6.8817596 -6.7864914 -7.4266815c-3.5773315 -2.7113419 -6.9986496 -2.9608154 -10.263931 -0.7484131c-1.9161606 1.2983017 -3.3743515 2.8093338 -4.3745956 4.533104c-1.0046539 1.7172546 -1.5611343 3.6538696 -1.669426 5.809845c-3.2202835 -2.2685776 -6.365303 -2.3629074 -9.435066 -0.28298187c-1.3882294 0.94060516 -2.4956818 2.927208 -3.322342 5.9598083c-0.83106995 3.026085 -1.0462112 5.929634 -0.6454239 8.710655l-2.1452026 -3.039795c-0.27820587 -0.41059875 -0.63339233 -1.0400772 -1.0655441 -1.8884201c-0.4321518 -0.8483429 -0.774086 -1.4582672 -1.025795 -1.8297653c-0.5299225 -0.7821045 -1.3394547 -1.2891693 -2.4285965 -1.5211945c-1.082634 -0.23643494 -2.0052261 -0.096321106 -2.7677765 0.42034912z" fill-rule="evenodd"></path><path fill="#ffffff" d="m130.16496 48.175022c-3.6758957 2.4906082 -5.3905334 7.0758247 -5.143921 13.755638c0.22194672 6.011837 1.6775894 11.002346 4.366913 14.971523c2.8218079 4.1647034 6.5016174 6.564125 11.039429 7.198265c4.3214417 0.6095581 8.486313 -0.44358063 12.494598 -3.159401c1.7401886 -1.1790695 3.5326385 -3.2494125 5.377365 -6.2110443c2.1102448 -3.3697586 2.6818237 -5.768303 1.7147217 -7.195648c-0.50341797 -0.7429962 -1.2133942 -1.2224197 -2.1299286 -1.4382706c-0.9209442 -0.22236633 -1.7431335 -0.08846283 -2.4665833 0.4017105c-0.2541809 0.17222595 -0.568573 0.613472 -0.9431915 1.3237534l-2.1700897 4.123535c-0.9056549 1.5265427 -1.9450531 2.6872482 -3.1182098 3.4821243c-2.5809479 1.7487259 -5.162918 2.4853897 -7.745941 2.2099762c-2.7665863 -0.2936859 -5.024231 -1.7309952 -6.7729645 -4.311943c-1.6162415 -2.3854218 -2.6409302 -5.813553 -3.0740356 -10.284397c-0.45587158 -4.8833694 0.313385 -8.000698 2.3077545 -9.351986c2.620041 -1.7752228 4.8181915 -2.594162 6.594452 -2.4568176c0.616272 0.06743622 1.2499847 0.13255692 1.9011536 0.1953659c0.65327454 0.051872253 1.2634277 -0.114284515 1.8304443 -0.49847794c0.7234497 -0.49017334 1.1352844 -1.1876297 1.2354889 -2.092369c0.09579468 -0.9112587 -0.10801697 -1.7383881 -0.6114502 -2.481388c-1.1260681 -1.661972 -3.5756989 -2.0562935 -7.348877 -1.1829643c-2.9752655 0.70357895 -5.4209747 1.7045174 -7.3371277 3.0028152z" fill-rule="evenodd"></path><path stroke="#274e13" stroke-width="1.0" stroke-linejoin="round" stroke-linecap="butt" d="m72.244896 85.40765c-1.9943695 1.3512878 -1.4879074 4.246155 1.519371 8.684593c0.71538544 1.0558472 1.8664703 2.5582275 3.4532394 4.5071564c1.5932922 1.9445114 2.741005 3.4349136 3.4431458 4.4712067c0.7948761 1.1731567 1.873024 2.9959793 3.2344513 5.4684677c1.3614197 2.4724808 2.4395752 4.2953033 3.2344513 5.46846c3.4047165 5.0250244 6.2117996 6.7890244 8.421242 5.2920074c0.80165863 -0.5431595 1.3135605 -1.2894058 1.5357132 -2.238739c0.22867584 -0.95373535 0.07142639 -1.8314362 -0.47174072 -2.6330948c-0.3179474 -0.46926117 -0.9291229 -1.1677856 -1.833519 -2.0955582c-0.89788055 -0.9321976 -1.5455399 -1.6915817 -1.9429779 -2.27816c-0.7418823 -1.0949478 -1.7802887 -2.8591156 -3.115219 -5.2924957c-1.3349228 -2.4333801 -2.399826 -4.2366486 -3.1947021 -5.4098053c0.1676712 -1.2262344 0.24895477 -2.1799622 0.24384308 -2.8611908l0.8377228 -6.216301c0.45393372 -2.361641 1.1532822 -4.3189774 2.09803 -5.872017c1.3682022 0.75616455 2.754448 2.1705399 4.1587296 4.2431183c1.6029968 2.36586 4.21006 5.7013397 7.8211823 10.006424c3.6132202 4.2941513 6.2213364 7.624161 7.824341 9.990028c0.58290863 0.8603134 1.3292618 1.3864136 2.2390518 1.5782928c0.9207306 0.19398499 1.8014755 0.0061416626 2.6422424 -0.56352234c0.8407593 -0.5696564 1.3384705 -1.3157959 1.4931335 -2.2384186c0.16560364 -0.92051697 -0.043052673 -1.8109283 -0.6259613 -2.6712494c-1.3645401 -2.013916 -3.2791443 -4.4396744 -5.7438126 -7.277275l-6.185669 -7.234665c-1.3626175 -1.758461 -2.656807 -3.5632858 -3.8825607 -5.4144745c0.12290192 -1.0817795 0.7386856 -2.8255997 1.8473587 -5.231453c1.1401978 -2.5698547 2.0720139 -4.099869 2.7954636 -4.590042c0.7821045 -0.52991486 2.1017075 -0.14022064 3.958809 1.1690826c1.3436279 0.9725189 2.5702515 2.0671082 3.6798859 3.28376l7.1574707 8.416321c3.0015335 3.672058 5.4069138 6.4642487 7.216133 8.376572c1.4263 1.5156097 2.9411163 1.7302475 4.5444336 0.64391327c0.8407593 -0.5696564 1.3689575 -1.3269424 1.5845947 -2.2718582c0.2156372 -0.94490814 0.029159546 -1.7885437 -0.5594177 -2.5309067c-6.1727295 -7.257683 -10.672157 -12.382584 -13.498268 -15.374687c-3.812767 -4.406204 -6.074936 -6.8817596 -6.7864914 -7.4266815c-3.5773315 -2.7113419 -6.9986496 -2.9608154 -10.263931 -0.7484131c-1.9161606 1.2983017 -3.3743515 2.8093338 -4.3745956 4.533104c-1.0046539 1.7172546 -1.5611343 3.6538696 -1.669426 5.809845c-3.2202835 -2.2685776 -6.365303 -2.3629074 -9.435066 -0.28298187c-1.3882294 0.94060516 -2.4956818 2.927208 -3.322342 5.9598083c-0.83106995 3.026085 -1.0462112 5.929634 -0.6454239 8.710655l-2.1452026 -3.039795c-0.27820587 -0.41059875 -0.63339233 -1.0400772 -1.0655441 -1.8884201c-0.4321518 -0.8483429 -0.774086 -1.4582672 -1.025795 -1.8297653c-0.5299225 -0.7821045 -1.3394547 -1.2891693 -2.4285965 -1.5211945c-1.082634 -0.23643494 -2.0052261 -0.096321106 -2.7677765 0.42034912z" fill-rule="evenodd"></path><path stroke="#274e13" stroke-width="1.0" stroke-linejoin="round" stroke-linecap="butt" d="m130.16496 48.175022c-3.6758957 2.4906082 -5.3905334 7.0758247 -5.143921 13.755638c0.22194672 6.011837 1.6775894 11.002346 4.366913 14.971523c2.8218079 4.1647034 6.5016174 6.564125 11.039429 7.198265c4.3214417 0.6095581 8.486313 -0.44358063 12.494598 -3.159401c1.7401886 -1.1790695 3.5326385 -3.2494125 5.377365 -6.2110443c2.1102448 -3.3697586 2.6818237 -5.768303 1.7147217 -7.195648c-0.50341797 -0.7429962 -1.2133942 -1.2224197 -2.1299286 -1.4382706c-0.9209442 -0.22236633 -1.7431335 -0.08846283 -2.4665833 0.4017105c-0.2541809 0.17222595 -0.568573 0.613472 -0.9431915 1.3237534l-2.1700897 4.123535c-0.9056549 1.5265427 -1.9450531 2.6872482 -3.1182098 3.4821243c-2.5809479 1.7487259 -5.162918 2.4853897 -7.745941 2.2099762c-2.7665863 -0.2936859 -5.024231 -1.7309952 -6.7729645 -4.311943c-1.6162415 -2.3854218 -2.6409302 -5.813553 -3.0740356 -10.284397c-0.45587158 -4.8833694 0.313385 -8.000698 2.3077545 -9.351986c2.620041 -1.7752228 4.8181915 -2.594162 6.594452 -2.4568176c0.616272 0.06743622 1.2499847 0.13255692 1.9011536 0.1953659c0.65327454 0.051872253 1.2634277 -0.114284515 1.8304443 -0.49847794c0.7234497 -0.49017334 1.1352844 -1.1876297 1.2354889 -2.092369c0.09579468 -0.9112587 -0.10801697 -1.7383881 -0.6114502 -2.481388c-1.1260681 -1.661972 -3.5756989 -2.0562935 -7.348877 -1.1829643c-2.9752655 0.70357895 -5.4209747 1.7045174 -7.3371277 3.0028152z" fill-rule="evenodd"></path><path fill="#000000" fill-opacity="0.0" d="m20.90727 18.604847l0 61.98425" fill-rule="nonzero"></path><path stroke="#ffffff" stroke-width="1.0" stroke-linejoin="round" stroke-linecap="butt" d="m20.90727 18.604847l0 61.98425" fill-rule="nonzero"></path><path fill="#000000" fill-opacity="0.0" d="m118.90727 18.604847l-98.01575 0" fill-rule="nonzero"></path><path stroke="#ffffff" stroke-width="1.0" stroke-linejoin="round" stroke-linecap="butt" d="m118.90727 18.604847l-98.01575 0" fill-rule="nonzero"></path><path fill="#000000" fill-opacity="0.0" d="m118.90727 19.557604c-24.251968 0 -36.377953 14.519686 -48.503937 29.03937c-12.125984 14.519684 -24.251968 29.039371 -48.503937 29.039371" fill-rule="nonzero"></path><path stroke="#ffffff" stroke-width="1.0" stroke-linejoin="round" stroke-linecap="butt" d="m118.90727 19.557604c-24.251968 0 -36.377953 14.519686 -48.503937 29.03937c-12.125984 14.519684 -24.251968 29.039371 -48.503937 29.039371" fill-rule="nonzero"></path><path fill="#000000" fill-opacity="0.0" d="m154.91515 154.77519l-86.99213 0" fill-rule="nonzero"></path><path stroke="#ffffff" stroke-width="1.0" stroke-linejoin="round" stroke-linecap="butt" d="m154.91515 154.77519l-86.99213 0" fill-rule="nonzero"></path><path fill="#000000" fill-opacity="0.0" d="m154.4678 107.003365c-21.527557 0 -32.291344 11.944885 -43.055122 23.889763c-10.763779 11.944885 -21.527557 23.88977 -43.055115 23.88977" fill-rule="nonzero"></path><path stroke="#ffffff" stroke-width="1.0" stroke-linejoin="round" stroke-linecap="butt" d="m154.4678 107.003365c-21.527557 0 -32.291344 11.944885 -43.055122 23.889763c-10.763779 11.944885 -21.527557 23.88977 -43.055115 23.88977" fill-rule="nonzero"></path><path fill="#000000" fill-opacity="0.0" d="m154.90816 104.60485l0 50.99212" fill-rule="nonzero"></path><path stroke="#ffffff" stroke-width="1.0" stroke-linejoin="round" stroke-linecap="butt" d="m154.90816 104.60485l0 50.99212" fill-rule="nonzero"></path><path fill="#ffffff" d="m122.559235 13.79835c-1.878212 1.2726517 -3.414505 2.9190378 -4.608856 4.9391584c-0.8280792 1.3967476 -1.6359482 3.2743702 -2.4236069 5.6328697c-0.32717896 0.9720745 -0.24923706 1.8146076 0.23382568 2.5275955c0.4513855 0.66623497 1.1415863 0.95747185 2.0706177 0.87371063c0.7463913 -0.06233406 1.4776611 -0.33612823 2.1938171 -0.82138443c0.59454346 -0.402853 1.3177795 -1.6972961 2.169716 -3.8833275c0.8537979 -2.1929798 1.9968491 -3.7747269 3.429161 -4.7452374c0.8107376 -0.549345 1.7908936 -0.89229393 2.9404526 -1.0288467c1.1469269 -0.14044952 1.8708496 0.0114040375 2.1717682 0.45556068c1.156189 1.7064972 1.1221466 3.9551296 -0.102127075 6.745899c-1.1137695 2.2554455 -2.2303467 4.5213146 -3.3497238 6.7976036c-1.1641235 2.4430447 -1.7945023 4.524435 -1.8911514 6.244169c-0.12372589 2.2326622 0.5548401 4.4418488 2.0357056 6.6275673c0.7602234 1.1220818 1.4575958 1.8603935 2.0921326 2.214943c1.0104828 0.5602646 2.1237793 0.4283867 3.3398895 -0.3956337c0.14863586 -0.10071182 0.38067627 -0.22382736 0.69610596 -0.36934662c0.31544495 -0.14551544 0.5474701 -0.26863098 0.69610596 -0.36934662c0.5269928 -0.35707474 1.2737427 -0.94265366 2.2402954 -1.7567406c0.9638977 -0.8179817 1.7025757 -1.4009285 2.2160492 -1.748848l5.970825 -4.0201607c0.31079102 -0.21058273 0.85406494 -0.5048027 1.6298523 -0.8826523c0.77763367 -0.38480377 1.3353729 -0.6916504 1.673172 -0.9205437c0.7837219 -0.53103256 1.2727661 -1.2205429 1.4671478 -2.0685272c0.19111633 -0.79460907 0.08078003 -1.4958115 -0.3310089 -2.1036034c-0.5701752 -0.84156036 -1.740036 -1.0550728 -3.5095978 -0.64053726c-1.4280396 0.33661652 -2.7230988 0.8986244 -3.8851624 1.6860199c-1.2431335 0.8423271 -3.2602234 2.302868 -6.051239 4.3816185c-1.3745575 1.0848618 -2.4057007 1.9199867 -3.0934448 2.505371c-1.0699615 -1.9866257 -0.8122406 -4.5744133 0.7731476 -7.763363c1.0713654 -2.05616 2.1387634 -4.118164 3.2021942 -6.186014c1.0709229 -2.2605114 1.6423492 -4.225212 1.7142944 -5.894106c0.11160278 -2.1050625 -0.50572205 -4.151101 -1.8519592 -6.138118c-1.3303986 -1.9636402 -3.4816132 -2.8253708 -6.453659 -2.5851908c-2.598854 0.20901299 -5.0671005 1.1054935 -7.4047394 2.6894407z" fill-rule="evenodd"></path><path stroke="#274e13" stroke-width="1.0" stroke-linejoin="round" stroke-linecap="butt" d="m122.559235 13.79835c-1.878212 1.2726517 -3.414505 2.9190378 -4.608856 4.9391584c-0.8280792 1.3967476 -1.6359482 3.2743702 -2.4236069 5.6328697c-0.32717896 0.9720745 -0.24923706 1.8146076 0.23382568 2.5275955c0.4513855 0.66623497 1.1415863 0.95747185 2.0706177 0.87371063c0.7463913 -0.06233406 1.4776611 -0.33612823 2.1938171 -0.82138443c0.59454346 -0.402853 1.3177795 -1.6972961 2.169716 -3.8833275c0.8537979 -2.1929798 1.9968491 -3.7747269 3.429161 -4.7452374c0.8107376 -0.549345 1.7908936 -0.89229393 2.9404526 -1.0288467c1.1469269 -0.14044952 1.8708496 0.0114040375 2.1717682 0.45556068c1.156189 1.7064972 1.1221466 3.9551296 -0.102127075 6.745899c-1.1137695 2.2554455 -2.2303467 4.5213146 -3.3497238 6.7976036c-1.1641235 2.4430447 -1.7945023 4.524435 -1.8911514 6.244169c-0.12372589 2.2326622 0.5548401 4.4418488 2.0357056 6.6275673c0.7602234 1.1220818 1.4575958 1.8603935 2.0921326 2.214943c1.0104828 0.5602646 2.1237793 0.4283867 3.3398895 -0.3956337c0.14863586 -0.10071182 0.38067627 -0.22382736 0.69610596 -0.36934662c0.31544495 -0.14551544 0.5474701 -0.26863098 0.69610596 -0.36934662c0.5269928 -0.35707474 1.2737427 -0.94265366 2.2402954 -1.7567406c0.9638977 -0.8179817 1.7025757 -1.4009285 2.2160492 -1.748848l5.970825 -4.0201607c0.31079102 -0.21058273 0.85406494 -0.5048027 1.6298523 -0.8826523c0.77763367 -0.38480377 1.3353729 -0.6916504 1.673172 -0.9205437c0.7837219 -0.53103256 1.2727661 -1.2205429 1.4671478 -2.0685272c0.19111633 -0.79460907 0.08078003 -1.4958115 -0.3310089 -2.1036034c-0.5701752 -0.84156036 -1.740036 -1.0550728 -3.5095978 -0.64053726c-1.4280396 0.33661652 -2.7230988 0.8986244 -3.8851624 1.6860199c-1.2431335 0.8423271 -3.2602234 2.302868 -6.051239 4.3816185c-1.3745575 1.0848618 -2.4057007 1.9199867 -3.0934448 2.505371c-1.0699615 -1.9866257 -0.8122406 -4.5744133 0.7731476 -7.763363c1.0713654 -2.05616 2.1387634 -4.118164 3.2021942 -6.186014c1.0709229 -2.2605114 1.6423492 -4.225212 1.7142944 -5.894106c0.11160278 -2.1050625 -0.50572205 -4.151101 -1.8519592 -6.138118c-1.3303986 -1.9636402 -3.4816132 -2.8253708 -6.453659 -2.5851908c-2.598854 0.20901299 -5.0671005 1.1054935 -7.4047394 2.6894407z" fill-rule="evenodd"></path></g></svg>

