<?xml version="1.0" standalone="yes"?>

<svg version="1.1" viewBox="0.0 0.0 168.04461942257217 158.47769028871392" fill="none" stroke="none" stroke-linecap="square" stroke-miterlimit="10" xmlns="http://www.w3.org/2000/svg" xmlns:xlink="http://www.w3.org/1999/xlink"><clipPath id="p.0"><path d="m0 0l168.04462 0l0 158.47769l-168.04462 0l0 -158.47769z" clip-rule="nonzero"></path></clipPath><g clip-path="url(#p.0)"><path fill="#000000" fill-opacity="0.0" d="m0 0l168.04462 0l0 158.47769l-168.04462 0z" fill-rule="nonzero"></path><path fill="#f1c232" d="m1.984252 27.638311l0 0c0 -14.266916 11.565621 -25.832537 25.832539 -25.832537l112.334915 0c6.851227 0 13.421829 2.7216344 18.266373 7.566175c4.844528 4.8445406 7.566162 11.415147 7.566162 18.266361l0 103.32705c0 14.266922 -11.565613 25.832535 -25.832535 25.832535l-112.334915 0c-14.266916 0 -25.832539 -11.565613 -25.832539 -25.832535z" fill-rule="nonzero"></path><path stroke="#000000" stroke-width="1.0" stroke-linejoin="round" stroke-linecap="butt" d="m1.984252 27.638311l0 0c0 -14.266916 11.565621 -25.832537 25.832539 -25.832537l112.334915 0c6.851227 0 13.421829 2.7216344 18.266373 7.566175c4.844528 4.8445406 7.566162 11.415147 7.566162 18.266361l0 103.32705c0 14.266922 -11.565613 25.832535 -25.832535 25.832535l-112.334915 0c-14.266916 0 -25.832539 -11.565613 -25.832539 -25.832535z" fill-rule="nonzero"></path><path fill="#00ff00" d="m25.401575 41.83238l0 0c0 -9.848551 7.9838276 -17.832378 17.832376 -17.832378l77.53209 0c4.7294464 0 9.265175 1.8787632 12.609398 5.2229824c3.344223 3.344221 5.2229767 7.8799534 5.2229767 12.609396l0 71.32738c0 9.848549 -7.9838257 17.832375 -17.832375 17.832375l-77.53209 0c-9.848549 0 -17.832376 -7.9838257 -17.832376 -17.832375z" fill-rule="nonzero"></path><path stroke="#000000" stroke-width="1.0" stroke-linejoin="round" stroke-linecap="butt" d="m25.401575 41.83238l0 0c0 -9.848551 7.9838276 -17.832378 17.832376 -17.832378l77.53209 0c4.7294464 0 9.265175 1.8787632 12.609398 5.2229824c3.344223 3.344221 5.2229767 7.8799534 5.2229767 12.609396l0 71.32738c0 9.848549 -7.9838257 17.832375 -17.832375 17.832375l-77.53209 0c-9.848549 0 -17.832376 -7.9838257 -17.832376 -17.832375z" fill-rule="nonzero"></path><path fill="#cfe2f3" d="m46.992126 42.48819l70.01575 0l0 70.01575l-70.01575 0zm16.007698 16.007698l0 38.000343l38.00035 0l0 -38.000343z" fill-rule="nonzero"></path><path stroke="#000000" stroke-width="1.0" stroke-linejoin="round" stroke-linecap="butt" d="m46.992126 42.48819l70.01575 0l0 70.01575l-70.01575 0zm16.007698 16.007698l0 38.000343l38.00035 0l0 -38.000343z" fill-rule="nonzero"></path></g></svg>

