<?xml version="1.0" standalone="yes"?>

<svg version="1.1" viewBox="0.0 0.0 171.10236220472441 160.39632545931758" fill="none" stroke="none" stroke-linecap="square" stroke-miterlimit="10" xmlns="http://www.w3.org/2000/svg" xmlns:xlink="http://www.w3.org/1999/xlink"><clipPath id="p.0"><path d="m0 0l171.10236 0l0 160.39633l-171.10236 0l0 -160.39633z" clip-rule="nonzero"></path></clipPath><g clip-path="url(#p.0)"><path fill="#000000" fill-opacity="0.0" d="m0 0l171.10236 0l0 160.39633l-171.10236 0z" fill-rule="nonzero"></path><path fill="#f1c232" d="m4.0555525 28.867994l0 0c0 -14.266916 11.565621 -25.832539 25.832539 -25.832539l112.33493 0c6.8512115 0 13.421814 2.7216344 18.266357 7.5661755c4.8445435 4.8445406 7.5661774 11.415147 7.5661774 18.266361l0 103.32704c0 14.266922 -11.565628 25.83255 -25.832535 25.83255l-112.33493 0c-14.266916 0 -25.832539 -11.565628 -25.832539 -25.83255z" fill-rule="nonzero"></path><path stroke="#000000" stroke-width="1.0" stroke-linejoin="round" stroke-linecap="butt" d="m4.0555525 28.867994l0 0c0 -14.266916 11.565621 -25.832539 25.832539 -25.832539l112.33493 0c6.8512115 0 13.421814 2.7216344 18.266357 7.5661755c4.8445435 4.8445406 7.5661774 11.415147 7.5661774 18.266361l0 103.32704c0 14.266922 -11.565628 25.83255 -25.832535 25.83255l-112.33493 0c-14.266916 0 -25.832539 -11.565628 -25.832539 -25.83255z" fill-rule="nonzero"></path><path fill="#00ff00" d="m27.964441 45.979847l0 0c0 -9.848549 7.9838276 -17.832378 17.832376 -17.832378l77.532104 0c4.729431 0 9.265167 1.8787632 12.60939 5.2229843c3.344223 3.3442192 5.2229767 7.8799515 5.2229767 12.609394l0 71.32738c0 9.848549 -7.9838257 17.832367 -17.832367 17.832367l-77.532104 0c-9.848549 0 -17.832376 -7.983818 -17.832376 -17.832367z" fill-rule="nonzero"></path><path stroke="#000000" stroke-width="1.0" stroke-linejoin="round" stroke-linecap="butt" d="m27.964441 45.979847l0 0c0 -9.848549 7.9838276 -17.832378 17.832376 -17.832378l77.532104 0c4.729431 0 9.265167 1.8787632 12.60939 5.2229843c3.344223 3.3442192 5.2229767 7.8799515 5.2229767 12.609394l0 71.32738c0 9.848549 -7.9838257 17.832367 -17.832367 17.832367l-77.532104 0c-9.848549 0 -17.832376 -7.983818 -17.832376 -17.832367z" fill-rule="nonzero"></path><path fill="#cfe2f3" d="m72.717285 40.643215l17.268677 23.081657l-7.123131 2.7219658l21.751137 19.778854l-7.1231384 3.302803l26.890816 33.11535l-45.603798 -25.378433l8.697311 -3.522995l-28.335121 -16.255867l10.1534195 -5.022537l-29.917164 -17.053093z" fill-rule="nonzero"></path><path stroke="#000000" stroke-width="1.0" stroke-linejoin="round" stroke-linecap="butt" d="m72.717285 40.643215l17.268677 23.081657l-7.123131 2.7219658l21.751137 19.778854l-7.1231384 3.302803l26.890816 33.11535l-45.603798 -25.378433l8.697311 -3.522995l-28.335121 -16.255867l10.1534195 -5.022537l-29.917164 -17.053093z" fill-rule="nonzero"></path></g></svg>

