<?xml version="1.0" encoding="UTF-8" standalone="no"?>
<svg
   xmlns:dc="http://purl.org/dc/elements/1.1/"
   xmlns:cc="http://creativecommons.org/ns#"
   xmlns:rdf="http://www.w3.org/1999/02/22-rdf-syntax-ns#"
   xmlns:svg="http://www.w3.org/2000/svg"
   xmlns="http://www.w3.org/2000/svg"
   xmlns:sodipodi="http://sodipodi.sourceforge.net/DTD/sodipodi-0.dtd"
   xmlns:inkscape="http://www.inkscape.org/namespaces/inkscape"
   version="1.1"
   viewBox="0 0 1024 768"
   stroke-miterlimit="10"
   id="svg2"
   inkscape:version="0.91 r"
   sodipodi:docname="running.svg"
   width="1024"
   height="768"
   style="fill:none;stroke:none;stroke-linecap:square;stroke-miterlimit:10">
  <metadata
     id="metadata27">
    <rdf:RDF>
      <cc:Work
         rdf:about="">
        <dc:format>image/svg+xml</dc:format>
        <dc:type
           rdf:resource="http://purl.org/dc/dcmitype/StillImage" />
        <dc:title></dc:title>
      </cc:Work>
    </rdf:RDF>
  </metadata>
  <defs
     id="defs25" />
  <sodipodi:namedview
     pagecolor="#ffffff"
     bordercolor="#666666"
     borderopacity="1"
     objecttolerance="10"
     gridtolerance="10"
     guidetolerance="10"
     inkscape:pageopacity="0"
     inkscape:pageshadow="2"
     inkscape:window-width="1879"
     inkscape:window-height="1065"
     id="namedview23"
     showgrid="false"
     fit-margin-top="0"
     fit-margin-left="0"
     fit-margin-right="0"
     fit-margin-bottom="0"
     showborder="false"
     inkscape:zoom="1"
     inkscape:cx="94.470764"
     inkscape:cy="670.38907"
     inkscape:window-x="41"
     inkscape:window-y="15"
     inkscape:window-maximized="1"
     inkscape:current-layer="svg2" />
  <clipPath
     id="p.0">
    <path
       d="m 0,0 1024,0 0,768 L 0,768 0,0 Z"
       id="path5"
       inkscape:connector-curvature="0"
       style="clip-rule:nonzero" />
  </clipPath>
  <g
     clip-path="url(#p.0)"
     id="g7"
     transform="translate(-632,-300)">
    <path
       d="m 0,0 1024,0 0,768 -1024,0 z"
       id="path9"
       inkscape:connector-curvature="0"
       style="fill:#000000;fill-opacity:0;fill-rule:nonzero" />
    <path
       d="m 0,25.832537 0,0 C 0,11.565622 11.565621,0 25.832537,0 L 138.16747,0 c 6.85121,0 13.42181,2.7216346 18.26635,7.566175 C 161.27837,12.410716 164,18.981323 164,25.832536 l 0,103.327064 c 0,14.2669 -11.56563,25.83253 -25.83253,25.83253 l -112.334934,0 C 11.565621,154.99213 -6.0000003e-7,143.4265 -6.0000003e-7,129.1596 Z"
       id="path11"
       inkscape:connector-curvature="0"
       style="fill:#f1c232;fill-rule:nonzero" />
    <path
       d="m 0,25.832537 0,0 C 0,11.565622 11.565621,0 25.832537,0 L 138.16747,0 c 6.85121,0 13.42181,2.7216346 18.26635,7.566175 C 161.27837,12.410716 164,18.981323 164,25.832536 l 0,103.327064 c 0,14.2669 -11.56563,25.83253 -25.83253,25.83253 l -112.334934,0 C 11.565621,154.99213 -6.0000003e-7,143.4265 -6.0000003e-7,129.1596 Z"
       id="path13"
       inkscape:connector-curvature="0"
       style="fill-rule:nonzero;stroke:#000000;stroke-width:1;stroke-linecap:butt;stroke-linejoin:round" />
    <path
       d="m 18.503937,37.485966 0,0 c 0,-11.048817 8.956835,-20.005651 20.00565,-20.005651 l 86.980823,0 c 5.30582,0 10.39434,2.107733 14.14614,5.85952 3.75178,3.751787 5.85951,8.840303 5.85951,14.146131 l 0,80.020204 c 0,11.04881 -8.95683,20.00564 -20.00565,20.00564 l -86.980823,0 c -11.048815,0 -20.00565,-8.95683 -20.00565,-20.00564 z"
       id="path15"
       inkscape:connector-curvature="0"
       style="fill:#00ff00;fill-rule:nonzero" />
    <path
       d="m 18.503937,37.485966 0,0 c 0,-11.048817 8.956835,-20.005651 20.00565,-20.005651 l 86.980823,0 c 5.30582,0 10.39434,2.107733 14.14614,5.85952 3.75178,3.751787 5.85951,8.840303 5.85951,14.146131 l 0,80.020204 c 0,11.04881 -8.95683,20.00564 -20.00565,20.00564 l -86.980823,0 c -11.048815,0 -20.00565,-8.95683 -20.00565,-20.00564 z"
       id="path17"
       inkscape:connector-curvature="0"
       style="fill-rule:nonzero;stroke:#000000;stroke-width:1;stroke-linecap:butt;stroke-linejoin:round" />
    <path
       d="M 70.340996,37.000072 87.60968,60.081729 80.486549,62.803695 102.23769,82.582549 95.114548,85.885352 122.00536,119.0007 76.401566,93.622269 85.098877,90.099274 56.763756,73.843407 66.917175,68.82087 37.000011,51.767777 Z"
       id="path19"
       inkscape:connector-curvature="0"
       style="fill:#cfe2f3;fill-rule:nonzero" />
    <path
       d="M 70.340996,37.000072 87.60968,60.081729 80.486549,62.803695 102.23769,82.582549 95.114548,85.885352 122.00536,119.0007 76.401566,93.622269 85.098877,90.099274 56.763756,73.843407 66.917175,68.82087 37.000011,51.767777 Z"
       id="path21"
       inkscape:connector-curvature="0"
       style="fill-rule:nonzero;stroke:#000000;stroke-width:1;stroke-linecap:butt;stroke-linejoin:round" />
  </g>
</svg>
