<?xml version="1.0" standalone="yes"?>

<svg version="1.1" viewBox="0.0 0.0 167.249343832021 158.00787401574803" fill="none" stroke="none" stroke-linecap="square" stroke-miterlimit="10" xmlns="http://www.w3.org/2000/svg" xmlns:xlink="http://www.w3.org/1999/xlink"><clipPath id="p.0"><path d="m0 0l167.24934 0l0 158.00787l-167.24934 0l0 -158.00787z" clip-rule="nonzero"></path></clipPath><g clip-path="url(#p.0)"><path fill="#000000" fill-opacity="0.0" d="m0 0l167.24934 0l0 158.00787l-167.24934 0z" fill-rule="nonzero"></path><path fill="#f1c232" d="m1.6459156 27.661333l0 0c0 -14.266917 11.56562 -25.832539 25.832537 -25.832539l112.334915 0c6.8512115 0 13.421829 2.7216344 18.266357 7.5661745c4.8445435 4.8445406 7.5661774 11.415148 7.5661774 18.266363l0 103.32706c0 14.266907 -11.565613 25.832535 -25.832535 25.832535l-112.334915 0c-14.266916 0 -25.832537 -11.565628 -25.832537 -25.832535z" fill-rule="nonzero"></path><path stroke="#000000" stroke-width="1.0" stroke-linejoin="round" stroke-linecap="butt" d="m1.6459156 27.661333l0 0c0 -14.266917 11.56562 -25.832539 25.832537 -25.832539l112.334915 0c6.8512115 0 13.421829 2.7216344 18.266357 7.5661745c4.8445435 4.8445406 7.5661774 11.415148 7.5661774 18.266363l0 103.32706c0 14.266907 -11.565613 25.832535 -25.832535 25.832535l-112.334915 0c-14.266916 0 -25.832537 -11.565628 -25.832537 -25.832535z" fill-rule="nonzero"></path><path fill="#ff9900" d="m25.12623 42.45384l0 0c0 -10.181957 8.2541065 -18.436066 18.436064 -18.436066l80.167244 0c4.8895416 0 9.578827 1.9423656 13.03627 5.3997993c3.457428 3.4574318 5.3997955 8.146717 5.3997955 13.036266l0 73.74205c0 10.181961 -8.254105 18.436073 -18.436066 18.436073l-80.167244 0c-10.181957 0 -18.436064 -8.254112 -18.436064 -18.436073z" fill-rule="nonzero"></path><path stroke="#000000" stroke-width="1.0" stroke-linejoin="round" stroke-linecap="butt" d="m25.12623 42.45384l0 0c0 -10.181957 8.2541065 -18.436066 18.436064 -18.436066l80.167244 0c4.8895416 0 9.578827 1.9423656 13.03627 5.3997993c3.457428 3.4574318 5.3997955 8.146717 5.3997955 13.036266l0 73.74205c0 10.181961 -8.254105 18.436073 -18.436066 18.436073l-80.167244 0c-10.181957 0 -18.436064 -8.254112 -18.436064 -18.436073z" fill-rule="nonzero"></path><path fill="#ff0000" d="m35.645916 79.32486l0 0c0 -26.509666 21.49033 -48.0 47.999996 -48.0l0 0c12.730392 0 24.939384 5.057129 33.94113 14.058876c9.001747 9.001743 14.058876 21.210732 14.058876 33.941124l0 0c0 26.509666 -21.490334 48.0 -48.000008 48.0l0 0c-26.509666 0 -47.999996 -21.490334 -47.999996 -48.0zm24.0 0l0 0c0 13.254837 10.745167 24.0 23.999996 24.0c13.254837 0 24.000008 -10.745163 24.000008 -24.0c0 -13.254837 -10.745171 -24.0 -24.000008 -24.0l0 0c-13.254829 0 -23.999996 10.745163 -23.999996 24.0z" fill-rule="nonzero"></path><path stroke="#000000" stroke-width="1.0" stroke-linejoin="round" stroke-linecap="butt" d="m35.645916 79.32486l0 0c0 -26.509666 21.49033 -48.0 47.999996 -48.0l0 0c12.730392 0 24.939384 5.057129 33.94113 14.058876c9.001747 9.001743 14.058876 21.210732 14.058876 33.941124l0 0c0 26.509666 -21.490334 48.0 -48.000008 48.0l0 0c-26.509666 0 -47.999996 -21.490334 -47.999996 -48.0zm24.0 0l0 0c0 13.254837 10.745167 24.0 23.999996 24.0c13.254837 0 24.000008 -10.745163 24.000008 -24.0c0 -13.254837 -10.745171 -24.0 -24.000008 -24.0l0 0c-13.254829 0 -23.999996 10.745163 -23.999996 24.0z" fill-rule="nonzero"></path><path fill="#cfe2f3" d="m74.48297 38.32454l17.268677 23.081661l-7.123131 2.7219658l21.751137 19.778854l-7.1231384 3.302803l26.890816 33.11535l-45.603798 -25.37844l8.697311 -3.5229874l-28.335121 -16.255867l10.1534195 -5.022537l-29.917164 -17.053093z" fill-rule="nonzero"></path><path stroke="#000000" stroke-width="1.0" stroke-linejoin="round" stroke-linecap="butt" d="m74.48297 38.32454l17.268677 23.081661l-7.123131 2.7219658l21.751137 19.778854l-7.1231384 3.302803l26.890816 33.11535l-45.603798 -25.37844l8.697311 -3.5229874l-28.335121 -16.255867l10.1534195 -5.022537l-29.917164 -17.053093z" fill-rule="nonzero"></path></g></svg>

